<svg xmlns="http://www.w3.org/2000/svg" xmlns:svg="http://www.w3.org/2000/svg" id="svg2" width="238.243" height="104.359" version="1.1"><defs id="defs4"><marker id="Arrow1Send" orient="auto" overflow="visible" refX="0" refY="0"><path id="path3774" fill-rule="evenodd" stroke="#000" stroke-width="1pt" d="M 0,0 5,-5 -12.5,0 5,5 0,0 z" transform="matrix(-0.2,0,0,-0.2,-1.2,0)"/></marker><marker id="Arrow2Mend" orient="auto" overflow="visible" refX="0" refY="0"><path id="path3786" fill-rule="evenodd" stroke-linejoin="round" stroke-width=".625" d="M 8.7185878,4.0337352 -2.2072895,0.01601326 8.7185884,-4.0017078 c -1.7454984,2.3720609 -1.7354408,5.6174519 -6e-7,8.035443 z" transform="scale(-0.6,-0.6)"/></marker><marker id="Arrow1Mend" orient="auto" overflow="visible" refX="0" refY="0"><path id="path3768" fill-rule="evenodd" stroke="#000" stroke-width="1pt" d="M 0,0 5,-5 -12.5,0 5,5 0,0 z" transform="matrix(-0.4,0,0,-0.4,-4,0)"/></marker><marker id="Arrow1Lend" orient="auto" overflow="visible" refX="0" refY="0"><path id="path3762" fill-rule="evenodd" stroke="#000" stroke-width="1pt" d="M 0,0 5,-5 -12.5,0 5,5 0,0 z" transform="matrix(-0.8,0,0,-0.8,-10,0)"/></marker></defs><metadata id="metadata7"/><g id="layer1" transform="translate(-222.69525,-394.46429)"><path id="path4943" fill="none" stroke="#000" stroke-dasharray="none" stroke-linecap="butt" stroke-linejoin="miter" stroke-miterlimit="4" stroke-opacity="1" stroke-width="8" marker-end="url(#Arrow1Send)" d="m 226.69525,431.70744 27.77919,1.01015"/><path id="path5139" fill="none" stroke="#000" stroke-dasharray="none" stroke-linecap="butt" stroke-linejoin="miter" stroke-miterlimit="4" stroke-opacity="1" stroke-width="8" marker-end="url(#Arrow1Send)" d="m 274.76415,441.21724 c 2.14286,43.57143 36.60008,44.46591 47.39307,47.42819"/><path id="path5141" fill="none" stroke="#000" stroke-dasharray="none" stroke-linecap="butt" stroke-linejoin="miter" stroke-miterlimit="4" stroke-opacity="1" stroke-width="8" marker-end="url(#Arrow1Send)" d="m 411.18732,433.72774 35.35534,1.01015"/><path id="path5159" fill="none" stroke="#000" stroke-dasharray="none" stroke-linecap="butt" stroke-linejoin="miter" stroke-miterlimit="4" stroke-opacity="1" stroke-width="8" marker-end="url(#Arrow1Send)" d="m 278.69272,425.19321 c 0,0 60.8858,-56.96593 122.75021,-4.57106"/><path id="path3001" fill="red" fill-opacity="1" stroke="none" d="m 80.307123,50.755318 a 6.060915,6.060915 0 1 1 -12.12183,0 6.060915,6.060915 0 1 1 12.12183,0 z" transform="matrix(0,1,1,0,223.20033,358.51608)"/><path id="path3002" fill="red" fill-opacity="1" stroke="none" d="m 80.307123,50.755318 a 6.060915,6.060915 0 1 1 -12.12183,0 6.060915,6.060915 0 1 1 12.12183,0 z" transform="matrix(0,1,1,0,291.77176,418.51608)"/><path id="path3004" fill="none" stroke="#000" stroke-dasharray="none" stroke-linecap="butt" stroke-linejoin="miter" stroke-miterlimit="4" stroke-opacity="1" stroke-width="8" marker-end="url(#Arrow1Send)" d="m 341.54987,484.43152 c 0,0 0.96327,-38.82118 55.9645,-46.85751"/><path id="path3006" fill="none" stroke="#000" stroke-dasharray="none" stroke-linecap="butt" stroke-linejoin="miter" stroke-miterlimit="4" stroke-opacity="1" stroke-width="8" marker-end="url(#Arrow1Send)" d="m 350.83558,490.14581 c 24.92879,-3.90484 44.71588,-30.84607 52.03593,-41.14323"/></g></svg>