<svg xmlns="http://www.w3.org/2000/svg" xmlns:svg="http://www.w3.org/2000/svg" id="svg2" width="206.318" height="72.428" version="1.1"><defs id="defs4"><marker id="Arrow1Send" orient="auto" overflow="visible" refX="0" refY="0"><path id="path3774" fill-rule="evenodd" stroke="#000" stroke-width="1pt" d="M 0,0 5,-5 -12.5,0 5,5 0,0 z" transform="matrix(-0.2,0,0,-0.2,-1.2,0)"/></marker><marker id="Arrow2Mend" orient="auto" overflow="visible" refX="0" refY="0"><path id="path3786" fill-rule="evenodd" stroke-linejoin="round" stroke-width=".625" d="M 8.7185878,4.0337352 -2.2072895,0.01601326 8.7185884,-4.0017078 c -1.7454984,2.3720609 -1.7354408,5.6174519 -6e-7,8.035443 z" transform="scale(-0.6,-0.6)"/></marker><marker id="Arrow1Mend" orient="auto" overflow="visible" refX="0" refY="0"><path id="path3768" fill-rule="evenodd" stroke="#000" stroke-width="1pt" d="M 0,0 5,-5 -12.5,0 5,5 0,0 z" transform="matrix(-0.4,0,0,-0.4,-4,0)"/></marker><marker id="Arrow1Lend" orient="auto" overflow="visible" refX="0" refY="0"><path id="path3762" fill-rule="evenodd" stroke="#000" stroke-width="1pt" d="M 0,0 5,-5 -12.5,0 5,5 0,0 z" transform="matrix(-0.8,0,0,-0.8,-10,0)"/></marker></defs><metadata id="metadata7"/><g id="layer1" transform="translate(-376.5106,-433.43911)"><path id="path5161" fill="none" stroke="#000" stroke-dasharray="none" stroke-linecap="butt" stroke-linejoin="miter" stroke-miterlimit="4" stroke-opacity="1" stroke-width="8" marker-end="url(#Arrow1Send)" d="m 478.22234,451.00514 c 29.28572,23.75 27.61731,51.59627 -8.71166,51.57646 -36.44966,-0.0199 -18.10635,-25.27225 -9.3957,-39.5054"/><path id="path3003" fill="none" stroke="#000" stroke-dasharray="none" stroke-linecap="butt" stroke-linejoin="miter" stroke-miterlimit="4" stroke-opacity="1" stroke-width="8" marker-end="url(#Arrow1Send)" d="m 379.43917,445.98075 73.1512,-1.01015"/><path id="path3005" fill="none" stroke="#000" stroke-dasharray="none" stroke-linecap="butt" stroke-linejoin="miter" stroke-miterlimit="4" stroke-opacity="1" stroke-width="8" marker-end="url(#Arrow1Send)" d="m 482.59676,443.96045 87.76125,-1.01015"/><path id="path3004" fill="red" fill-opacity="1" stroke="none" d="m 80.307123,50.755318 c 0,3.347351 -2.713564,6.060915 -6.060915,6.060915 -3.347351,0 -6.060915,-2.713564 -6.060915,-6.060915 0,-3.347351 2.713564,-6.060915 6.060915,-6.060915 3.347351,0 6.060915,2.713564 6.060915,6.060915 z" transform="matrix(0,-1,1,0,422.09693,518.66704)"/></g></svg>