<svg xmlns="http://www.w3.org/2000/svg" xmlns:xlink="http://www.w3.org/1999/xlink" width="445" height="210" viewBox="-2 -2 445 210"><style type="text/css">@font-face{font-family:&apos;PT Mono&apos;;font-style:normal;font-weight:400;src:local(&apos;PT Mono&apos;),local(&apos;PTMono-Regular&apos;),url(http://themes.googleusercontent.com/static/fonts/ptmono/v1/jmle3kzCPnW8O7_gZGRDlQ.woff) format(&apos;woff&apos;)}</style><g><text x="0" y="14" font-family="PT Mono">synchronous, single thread of control</text><path stroke="#44f" stroke-width="5" d="M 0.5 40.5 L 20.5 40.5"/><path stroke="#c22" stroke-width="2" d="M 20 40 L 180 40"/><ellipse width="10" height="10" cx="20" cy="40" fill="#000" rx="5" ry="5"/><path stroke="#44f" stroke-width="5" d="M 180.5 40.5 L 200.5 40.5"/><path stroke="#c22" stroke-width="2" d="M 200 40 L 400 40"/><ellipse width="10" height="10" cx="200" cy="40" fill="#000" rx="5" ry="5"/><path stroke="#44f" stroke-width="5" d="M 400.5 40.5 L 440.5 40.5"/><text x="0" y="71" font-family="PT Mono">synchronous, two threads of control</text><path stroke="#44f" stroke-width="5" d="M 0.5 95.5 L 20.5 95.5"/><path stroke="#c22" stroke-width="2" d="M 20 95 L 180 95"/><ellipse width="10" height="10" cx="20" cy="95" fill="#000" rx="5" ry="5"/><path stroke="#44f" stroke-width="5" d="M 220.5 95.5 L 260.5 95.5"/><path stroke="#44f" stroke-width="5" d="M 0.5 120.5 L 20.5 120.5"/><path stroke="#c22" stroke-width="2" d="M 20 120 L 220 120"/><ellipse width="10" height="10" cx="20" cy="120" fill="#000" rx="5" ry="5"/><path stroke="#44f" stroke-width="5" d="M 220.5 120.5 L 240.5 120.5"/><text x="0" y="151" font-family="PT Mono">asynchronous</text><path fill="none" stroke="#c22" stroke-width="2" d="M 20 175 a 30 30 0 0 0 30 30 l 82 0 a 30 30 0 0 0 30 -30"/><path fill="none" stroke="#c22" stroke-width="2" d="M 40 175 a 15 15 0 0 0 15 15 l 152 0 a 15 15 0 0 0 15 -15"/><path stroke="#44f" stroke-width="5" d="M 0.5 175.5 L 60.5 175.5"/><path stroke="#c22" stroke-width="2" d="M 20 175 L 20 175"/><ellipse width="10" height="10" cx="20" cy="175" fill="#000" rx="5" ry="5"/><path stroke="#c22" stroke-width="2" d="M 40 175 L 40 175"/><ellipse width="10" height="10" cx="40" cy="175" fill="#000" rx="5" ry="5"/><path stroke="#44f" stroke-width="5" d="M 160.5 175.5 L 180.5 175.5"/><path stroke="#44f" stroke-width="5" d="M 220.5 175.5 L 260.5 175.5"/></g></svg>