<svg xmlns="http://www.w3.org/2000/svg" xmlns:svg="http://www.w3.org/2000/svg" id="svg2" width="108.821" height="206.315" version="1.1"><defs id="defs4"><marker id="Arrow1Send" orient="auto" overflow="visible" refX="0" refY="0"><path id="path3774" fill-rule="evenodd" stroke="#000" stroke-width="1pt" d="M 0,0 5,-5 -12.5,0 5,5 0,0 z" transform="matrix(-0.2,0,0,-0.2,-1.2,0)"/></marker><marker id="Arrow2Mend" orient="auto" overflow="visible" refX="0" refY="0"><path id="path3786" fill-rule="evenodd" stroke-linejoin="round" stroke-width=".625" d="M 8.7185878,4.0337352 -2.2072895,0.01601326 8.7185884,-4.0017078 c -1.7454984,2.3720609 -1.7354408,5.6174519 -6e-7,8.035443 z" transform="scale(-0.6,-0.6)"/></marker><marker id="Arrow1Mend" orient="auto" overflow="visible" refX="0" refY="0"><path id="path3768" fill-rule="evenodd" stroke="#000" stroke-width="1pt" d="M 0,0 5,-5 -12.5,0 5,5 0,0 z" transform="matrix(-0.4,0,0,-0.4,-4,0)"/></marker><marker id="Arrow1Lend" orient="auto" overflow="visible" refX="0" refY="0"><path id="path3762" fill-rule="evenodd" stroke="#000" stroke-width="1pt" d="M 0,0 5,-5 -12.5,0 5,5 0,0 z" transform="matrix(-0.8,0,0,-0.8,-10,0)"/></marker></defs><metadata id="metadata7"/><g id="layer1" transform="translate(-271.44205,-341.2554)"><path id="path4943" fill="none" stroke="#000" stroke-dasharray="none" stroke-linecap="butt" stroke-linejoin="miter" stroke-miterlimit="4" stroke-opacity="1" stroke-width="8" marker-end="url(#Arrow1Send)" d="m 313.14729,345.2554 1.01015,27.77919"/><path id="path5139" fill="none" stroke="#000" stroke-dasharray="none" stroke-linecap="butt" stroke-linejoin="miter" stroke-miterlimit="4" stroke-opacity="1" stroke-width="8" marker-end="url(#Arrow1Send)" d="m 322.65709,393.3243 c 43.57143,2.14286 44.46591,36.60008 47.42819,47.39307"/><path id="path5141" fill="none" stroke="#000" stroke-dasharray="none" stroke-linecap="butt" stroke-linejoin="miter" stroke-miterlimit="4" stroke-opacity="1" stroke-width="8" marker-end="url(#Arrow1Send)" d="m 315.16759,500.8189 1.01015,35.35534"/><path id="path5159" fill="none" stroke="#000" stroke-dasharray="none" stroke-linecap="butt" stroke-linejoin="miter" stroke-miterlimit="4" stroke-opacity="1" stroke-width="8" marker-end="url(#Arrow1Send)" d="m 306.63306,397.25287 c 0,0 -66.25164,35.8858 -5.64249,93.4645"/><path id="path3001" fill="red" fill-opacity="1" stroke="none" d="m 80.307123,50.755318 c 0,3.347351 -2.713564,6.060915 -6.060915,6.060915 -3.347351,0 -6.060915,-2.713564 -6.060915,-6.060915 0,-3.347351 2.713564,-6.060915 6.060915,-6.060915 3.347351,0 6.060915,2.713564 6.060915,6.060915 z" transform="translate(239.95593,341.76048)"/><path id="path3002" fill="red" fill-opacity="1" stroke="none" d="m 80.307123,50.755318 c 0,3.347351 -2.713564,6.060915 -6.060915,6.060915 -3.347351,0 -6.060915,-2.713564 -6.060915,-6.060915 0,-3.347351 2.713564,-6.060915 6.060915,-6.060915 3.347351,0 6.060915,2.713564 6.060915,6.060915 z" transform="translate(299.95593,410.33191)"/><path id="path3004" fill="none" stroke="#000" stroke-dasharray="none" stroke-linecap="butt" stroke-linejoin="miter" stroke-miterlimit="4" stroke-opacity="1" stroke-width="8" marker-end="url(#Arrow1Send)" d="m 365.87137,460.11002 c -16.78571,-0.35714 -26.85751,1.32164 -41.50037,27.75021"/><path id="path3006" fill="none" stroke="#000" stroke-dasharray="none" stroke-linecap="butt" stroke-linejoin="miter" stroke-miterlimit="4" stroke-opacity="1" stroke-width="8" marker-end="url(#Arrow1Send)" d="m 371.58566,469.39573 c -3.92858,25 -28.64323,27.39307 -37.21466,29.53593"/></g></svg>