<svg xmlns="http://www.w3.org/2000/svg" xmlns:svg="http://www.w3.org/2000/svg" id="svg3283" width="205.101" height="85.751" version="1.1"><defs id="defs3285"><marker id="Arrow1Send" orient="auto" overflow="visible" refX="0" refY="0"><path id="path3774" fill-rule="evenodd" stroke="#000" stroke-width="1pt" d="M 0,0 5,-5 -12.5,0 5,5 0,0 z" transform="matrix(-0.2,0,0,-0.2,-1.2,0)"/></marker><marker id="marker3266" orient="auto" overflow="visible" refX="0" refY="0"><path id="path3268" fill-rule="evenodd" stroke="#000" stroke-width="1pt" d="M 0,0 5,-5 -12.5,0 5,5 0,0 z" transform="matrix(-0.2,0,0,-0.2,-1.2,0)"/></marker><marker id="marker3270" orient="auto" overflow="visible" refX="0" refY="0"><path id="path3272" fill-rule="evenodd" stroke="#000" stroke-width="1pt" d="M 0,0 5,-5 -12.5,0 5,5 0,0 z" transform="matrix(-0.2,0,0,-0.2,-1.2,0)"/></marker><marker id="marker3274" orient="auto" overflow="visible" refX="0" refY="0"><path id="path3276" fill-rule="evenodd" stroke="#000" stroke-width="1pt" d="M 0,0 5,-5 -12.5,0 5,5 0,0 z" transform="matrix(-0.2,0,0,-0.2,-1.2,0)"/></marker></defs><metadata id="metadata3288"/><g id="layer1" transform="translate(913.58095,-175.19662)"><g id="g3322" transform="matrix(0,-1,1,0,-1032.3622,-596.20924)"><path id="path4943" fill="none" stroke="#000" stroke-dasharray="none" stroke-linecap="butt" stroke-linejoin="miter" stroke-miterlimit="4" stroke-opacity="1" stroke-width="8" marker-end="url(#Arrow1Send)" d="m -815.78349,118.91917 1.01015,27.77919"/><path id="path5139" fill="none" stroke="#000" stroke-dasharray="none" stroke-linecap="butt" stroke-linejoin="miter" stroke-miterlimit="4" stroke-opacity="1" stroke-width="8" marker-end="url(#Arrow1Send)" d="m -807.70227,168.41664 c 0,0 67.6802,38.3858 7.07106,95.9645"/><path id="path5141" fill="none" stroke="#000" stroke-dasharray="none" stroke-linecap="butt" stroke-linejoin="miter" stroke-miterlimit="4" stroke-opacity="1" stroke-width="8" marker-end="url(#Arrow1Send)" d="m -813.76319,274.48267 1.01015,35.35534"/><path id="path5159" fill="none" stroke="#000" stroke-dasharray="none" stroke-linecap="butt" stroke-linejoin="miter" stroke-miterlimit="4" stroke-opacity="1" stroke-width="8" marker-end="url(#Arrow1Send)" d="m -820.86915,168.41664 c 0,0 -67.68021,38.3858 -7.07106,95.9645"/><path id="path3001" fill="red" fill-opacity="1" stroke="none" d="m 80.307123,50.755318 c 0,3.347351 -2.713564,6.060915 -6.060915,6.060915 -3.347351,0 -6.060915,-2.713564 -6.060915,-6.060915 0,-3.347351 2.713564,-6.060915 6.060915,-6.060915 3.347351,0 6.060915,2.713564 6.060915,6.060915 z" transform="translate(-888.97485,115.42425)"/></g></g></svg>