<svg xmlns="http://www.w3.org/2000/svg" xmlns:xlink="http://www.w3.org/1999/xlink" width="355" height="155" viewBox="-2 -2 355 155"><g><rect width="75" height="15" x="0" y="15" fill="#bbf"/><rect width="60" height="15" x="75" y="30" fill="#bbf"/><rect width="15" height="60" x="135" y="45" fill="#bbf"/><rect width="75" height="15" x="60" y="105" fill="#bbf"/><rect width="15" height="30" x="75" y="45" fill="#bbf"/><rect width="15" height="75" x="45" y="30" fill="#bbf"/><rect width="30" height="30" x="90" y="120" fill="#bbf"/><rect width="15" height="30" x="15" y="90" fill="#bbf"/><g><path width="150" height="150" stroke="#444" stroke-width="1" d="M 15.5 0.5 L 15.5 150.5"/><path width="150" height="150" stroke="#444" stroke-width="1" d="M 30.5 0.5 L 30.5 150.5"/><path width="150" height="150" stroke="#444" stroke-width="1" d="M 45.5 0.5 L 45.5 150.5"/><path width="150" height="150" stroke="#444" stroke-width="1" d="M 60.5 0.5 L 60.5 150.5"/><path width="150" height="150" stroke="#444" stroke-width="1" d="M 75.5 0.5 L 75.5 150.5"/><path width="150" height="150" stroke="#444" stroke-width="1" d="M 90.5 0.5 L 90.5 150.5"/><path width="150" height="150" stroke="#444" stroke-width="1" d="M 105.5 0.5 L 105.5 150.5"/><path width="150" height="150" stroke="#444" stroke-width="1" d="M 120.5 0.5 L 120.5 150.5"/><path width="150" height="150" stroke="#444" stroke-width="1" d="M 135.5 0.5 L 135.5 150.5"/><path width="150" height="150" stroke="#444" stroke-width="1" d="M 0.5 15.5 L 150.5 15.5"/><path width="150" height="150" stroke="#444" stroke-width="1" d="M 0.5 30.5 L 150.5 30.5"/><path width="150" height="150" stroke="#444" stroke-width="1" d="M 0.5 45.5 L 150.5 45.5"/><path width="150" height="150" stroke="#444" stroke-width="1" d="M 0.5 60.5 L 150.5 60.5"/><path width="150" height="150" stroke="#444" stroke-width="1" d="M 0.5 75.5 L 150.5 75.5"/><path width="150" height="150" stroke="#444" stroke-width="1" d="M 0.5 90.5 L 150.5 90.5"/><path width="150" height="150" stroke="#444" stroke-width="1" d="M 0.5 105.5 L 150.5 105.5"/><path width="150" height="150" stroke="#444" stroke-width="1" d="M 0.5 120.5 L 150.5 120.5"/><path width="150" height="150" stroke="#444" stroke-width="1" d="M 0.5 135.5 L 150.5 135.5"/><rect width="150" height="150" x=".5" y=".5" fill="none" stroke="#444" stroke-width="1"/></g><ellipse width="7.5" height="7.5" cx="112.5" cy="67.5" fill="#a33" rx="3.75" ry="3.75"/><rect width="15" height="30" x="275" y="75" fill="#ffe6c0"/><rect width="45" height="60" x="290" y="45" fill="#ffe6c0"/><rect width="15" height="75" x="260" y="30" fill="#ffe6c0"/><rect width="75" height="15" x="200" y="15" fill="#bbf"/><rect width="60" height="15" x="275" y="30" fill="#bbf"/><rect width="15" height="60" x="335" y="45" fill="#bbf"/><rect width="75" height="15" x="260" y="105" fill="#bbf"/><rect width="15" height="30" x="275" y="45" fill="#bbf"/><rect width="15" height="75" x="245" y="30" fill="#bbf"/><rect width="30" height="30" x="290" y="120" fill="#bbf"/><rect width="15" height="30" x="215" y="90" fill="#bbf"/><g><path width="150" height="150" stroke="#444" stroke-width="1" d="M 215.5 0.5 L 215.5 150.5"/><path width="150" height="150" stroke="#444" stroke-width="1" d="M 230.5 0.5 L 230.5 150.5"/><path width="150" height="150" stroke="#444" stroke-width="1" d="M 245.5 0.5 L 245.5 150.5"/><path width="150" height="150" stroke="#444" stroke-width="1" d="M 260.5 0.5 L 260.5 150.5"/><path width="150" height="150" stroke="#444" stroke-width="1" d="M 275.5 0.5 L 275.5 150.5"/><path width="150" height="150" stroke="#444" stroke-width="1" d="M 290.5 0.5 L 290.5 150.5"/><path width="150" height="150" stroke="#444" stroke-width="1" d="M 305.5 0.5 L 305.5 150.5"/><path width="150" height="150" stroke="#444" stroke-width="1" d="M 320.5 0.5 L 320.5 150.5"/><path width="150" height="150" stroke="#444" stroke-width="1" d="M 335.5 0.5 L 335.5 150.5"/><path width="150" height="150" stroke="#444" stroke-width="1" d="M 200.5 15.5 L 350.5 15.5"/><path width="150" height="150" stroke="#444" stroke-width="1" d="M 200.5 30.5 L 350.5 30.5"/><path width="150" height="150" stroke="#444" stroke-width="1" d="M 200.5 45.5 L 350.5 45.5"/><path width="150" height="150" stroke="#444" stroke-width="1" d="M 200.5 60.5 L 350.5 60.5"/><path width="150" height="150" stroke="#444" stroke-width="1" d="M 200.5 75.5 L 350.5 75.5"/><path width="150" height="150" stroke="#444" stroke-width="1" d="M 200.5 90.5 L 350.5 90.5"/><path width="150" height="150" stroke="#444" stroke-width="1" d="M 200.5 105.5 L 350.5 105.5"/><path width="150" height="150" stroke="#444" stroke-width="1" d="M 200.5 120.5 L 350.5 120.5"/><path width="150" height="150" stroke="#444" stroke-width="1" d="M 200.5 135.5 L 350.5 135.5"/><rect width="150" height="150" x="200.5" y=".5" fill="none" stroke="#444" stroke-width="1"/></g><ellipse width="7.5" height="7.5" cx="312.5" cy="67.5" fill="#a33" rx="3.75" ry="3.75"/></g></svg>