<svg xmlns="http://www.w3.org/2000/svg" xmlns:xlink="http://www.w3.org/1999/xlink" width="125" height="105" viewBox="-2 -2 125 105"><g><rect width="40" height="60" x="40" y="20" fill="#e0e0ff"/><g><path width="120" height="100" stroke="#888" stroke-width="1" d="M 20.5 0.5 L 20.5 100.5"/><path width="120" height="100" stroke="#888" stroke-width="1" d="M 40.5 0.5 L 40.5 100.5"/><path width="120" height="100" stroke="#888" stroke-width="1" d="M 60.5 0.5 L 60.5 100.5"/><path width="120" height="100" stroke="#888" stroke-width="1" d="M 80.5 0.5 L 80.5 100.5"/><path width="120" height="100" stroke="#888" stroke-width="1" d="M 100.5 0.5 L 100.5 100.5"/><path width="120" height="100" stroke="#888" stroke-width="1" d="M 0.5 20.5 L 120.5 20.5"/><path width="120" height="100" stroke="#888" stroke-width="1" d="M 0.5 40.5 L 120.5 40.5"/><path width="120" height="100" stroke="#888" stroke-width="1" d="M 0.5 60.5 L 120.5 60.5"/><path width="120" height="100" stroke="#888" stroke-width="1" d="M 0.5 80.5 L 120.5 80.5"/></g><rect width="16" height="30" x="55" y="37" fill="#404040"/></g></svg>