<svg xmlns="http://www.w3.org/2000/svg" xmlns:xlink="http://www.w3.org/1999/xlink" width="439" height="259" viewBox="-2 -2 439 259"><style type="text/css">@font-face{font-family:&apos;PT Mono&apos;;font-style:normal;font-weight:400;src:local(&apos;PT Mono&apos;),local(&apos;PTMono-Regular&apos;),url(http://themes.googleusercontent.com/static/fonts/ptmono/v1/jmle3kzCPnW8O7_gZGRDlQ.woff) format(&apos;woff&apos;)}.box{stroke:#666;fill:url(#boxgrad);border-radius:4px}.leafbox{fill:url(#leafgrad)}.boxtext{font-size:18px;font-family:&quot;PT Mono&quot;;stroke:none;fill:#000}.leafboxtext{font-family:&quot;Georgia&quot;}.arrow{stroke:#000}</style><defs><linearGradient id="boxgrad" x1="0" x2="0" y1="0" y2="1"><stop offset="0%" stop-color="#f8f8f8"/><stop offset="100%" stop-color="#e8e8f2"/></linearGradient><linearGradient id="leafgrad" x1="0" x2="0" y1="0" y2="1"><stop offset="0%" stop-color="#f8f8f8"/><stop offset="100%" stop-color="#caf0f0"/></linearGradient></defs><g><rect width="66" height="30" x=".5" y=".5" class="box" rx="4" ry="4"/><text x="9.7" y="23" fill="#000" stroke="none" class="boxtext">html</text><rect width="66" height="30" x="91.5" y=".5" class="box" rx="4" ry="4"/><text x="100.7" y="23" fill="#000" stroke="none" class="boxtext">head</text><path fill="none" d="M 66.5 15.5 L 91.5 15.5" class="arrow"/><path fill="#000" stroke="none" d="M 0 0 L 3 8 L 0 7 L -3 8 Z" transform="translate(91.5 15.5) rotate(90) scale(1)"/><rect width="78" height="30" x="182.5" y=".5" class="box" rx="4" ry="4"/><text x="191.7" y="23" fill="#000" stroke="none" class="boxtext">title</text><path fill="none" d="M 157.5 15.5 L 182.5 15.5" class="arrow"/><path fill="#000" stroke="none" d="M 0 0 L 3 8 L 0 7 L -3 8 Z" transform="translate(182.5 15.5) rotate(90) scale(1)"/><rect width="149" height="29" x="285.5" y=".5" class="box leafbox" rx="4" ry="4"/><text x="294.3" y="22.25" fill="#000" stroke="none" class="boxtext leafboxtext">My home page</text><path fill="none" d="M 260.5 15.5 L 285.5 15.5" class="arrow"/><path fill="#000" stroke="none" d="M 0 0 L 3 8 L 0 7 L -3 8 Z" transform="translate(285.5 15.5) rotate(90) scale(1)"/><rect width="66" height="30" x="91.5" y="45.5" class="box" rx="4" ry="4"/><text x="100.7" y="68" fill="#000" stroke="none" class="boxtext">body</text><path fill="none" d="M 74.5 15.5 L 74.5 56.5 A 4 4 0 0 0 78.5 60.5 L 91.5 60.5" class="arrow"/><path fill="#000" stroke="none" d="M 0 0 L 3 8 L 0 7 L -3 8 Z" transform="translate(91.5 60.5) rotate(90) scale(1)"/><rect width="78" height="30" x="182.5" y="45.5" class="box" rx="4" ry="4"/><text width="78" x="191.7" y="68" fill="#000" stroke="none" class="boxtext">h1</text><path fill="none" d="M 157.5 60.5 L 182.5 60.5" class="arrow"/><path fill="#000" stroke="none" d="M 0 0 L 3 8 L 0 7 L -3 8 Z" transform="translate(182.5 60.5) rotate(90) scale(1)"/><rect width="149" height="29" x="285.5" y="45.5" class="box leafbox" rx="4" ry="4"/><text x="294.3" y="67.25" fill="#000" stroke="none" class="boxtext leafboxtext">My home page</text><path fill="none" d="M 260.5 60.5 L 285.5 60.5" class="arrow"/><path fill="#000" stroke="none" d="M 0 0 L 3 8 L 0 7 L -3 8 Z" transform="translate(285.5 60.5) rotate(90) scale(1)"/><rect width="78" height="30" x="182.5" y="90.5" class="box" rx="4" ry="4"/><text width="78" x="191.7" y="113" fill="#000" stroke="none" class="boxtext">p</text><path fill="none" d="M 165.5 60.5 L 165.5 101.5 A 4 4 0 0 0 169.5 105.5 L 182.5 105.5" class="arrow"/><path fill="#000" stroke="none" d="M 0 0 L 3 8 L 0 7 L -3 8 Z" transform="translate(182.5 105.5) rotate(90) scale(1)"/><rect width="149" height="29" x="285.5" y="90.5" class="box leafbox" rx="4" ry="4"/><text width="149" x="294.3" y="112.25" fill="#000" stroke="none" class="boxtext leafboxtext">Hello! I am...</text><path fill="none" d="M 260.5 105.5 L 285.5 105.5" class="arrow"/><path fill="#000" stroke="none" d="M 0 0 L 3 8 L 0 7 L -3 8 Z" transform="translate(285.5 105.5) rotate(90) scale(1)"/><rect width="78" height="30" x="182.5" y="135.5" class="box" rx="4" ry="4"/><text width="78" x="191.7" y="158" fill="#000" stroke="none" class="boxtext">p</text><path fill="none" d="M 165.5 60.5 L 165.5 146.5 A 4 4 0 0 0 169.5 150.5 L 182.5 150.5" class="arrow"/><path fill="#000" stroke="none" d="M 0 0 L 3 8 L 0 7 L -3 8 Z" transform="translate(182.5 150.5) rotate(90) scale(1)"/><rect width="149" height="29" x="285.5" y="135.5" class="box leafbox" rx="4" ry="4"/><text width="149" x="294.3" y="157.25" fill="#000" stroke="none" class="boxtext leafboxtext">I also wrote...</text><path fill="none" d="M 260.5 150.5 L 285.5 150.5" class="arrow"/><path fill="#000" stroke="none" d="M 0 0 L 3 8 L 0 7 L -3 8 Z" transform="translate(285.5 150.5) rotate(90) scale(1)"/><rect width="58" height="29" x="376.5" y="180.5" class="box leafbox" rx="4" ry="4"/><text x="385.3" y="202.25" fill="#000" stroke="none" class="boxtext leafboxtext">here</text><rect width="66" height="30" x="285.5" y="180.5" class="box" rx="4" ry="4"/><text width="66" x="294.7" y="203" fill="#000" stroke="none" class="boxtext">a</text><path fill="none" d="M 268.5 150.5 L 268.5 191.5 A 4 4 0 0 0 272.5 195.5 L 285.5 195.5" class="arrow"/><path fill="#000" stroke="none" d="M 0 0 L 3 8 L 0 7 L -3 8 Z" transform="translate(285.5 195.5) rotate(90) scale(1)"/><path fill="none" d="M 351.5 195.5 L 376.5 195.5" class="arrow"/><path fill="#000" stroke="none" d="M 0 0 L 3 8 L 0 7 L -3 8 Z" transform="translate(376.5 195.5) rotate(90) scale(1)"/><rect width="23" height="29" x="285.5" y="225.5" class="box leafbox" rx="4" ry="4"/><text x="294.3" y="247.25" fill="#000" stroke="none" class="boxtext leafboxtext">.</text><path fill="none" d="M 268.5 150.5 L 268.5 236.5 A 4 4 0 0 0 272.5 240.5 L 285.5 240.5" class="arrow"/><path fill="#000" stroke="none" d="M 0 0 L 3 8 L 0 7 L -3 8 Z" transform="translate(285.5 240.5) rotate(90) scale(1)"/></g></svg>