<svg xmlns="http://www.w3.org/2000/svg" xmlns:xlink="http://www.w3.org/1999/xlink" width="324" height="152" viewBox="-62 -84 324 152"><style type="text/css">@font-face{font-family:&apos;PT Mono&apos;;font-style:normal;font-weight:400;src:local(&apos;PT Mono&apos;),local(&apos;PTMono-Regular&apos;),url(http://themes.googleusercontent.com/static/fonts/ptmono/v1/jmle3kzCPnW8O7_gZGRDlQ.woff) format(&apos;woff&apos;)}.caption{font-family:&apos;PT Mono&apos;;font-size:13px}</style><g><path stroke="#000" d="M 0.5 -59.5 L 0.5 60.5"/><path fill="#000" stroke="none" d="M 0 0 L 3 8 L 0 7 L -3 8 Z" transform="translate(0.5 60.5) rotate(180) scale(1)"/><path stroke="#000" d="M -59.5 0.5 L 60.5 0.5"/><path fill="#000" stroke="none" d="M 0 0 L 3 8 L 0 7 L -3 8 Z" transform="translate(60.5 0.5) rotate(90) scale(1)"/><path stroke="#000" d="M 0.5 -59.5 L 0.5 60.5" transform="translate(200 0) scale(-1 1)"/><path fill="#000" stroke="none" d="M 0 0 L 3 8 L 0 7 L -3 8 Z" transform="translate(200 0) scale(-1 1) translate(0.5 60.5) rotate(180) scale(1)"/><path stroke="#000" d="M -59.5 0.5 L 60.5 0.5" transform="translate(200 0) scale(-1 1)"/><path fill="#000" stroke="none" d="M 0 0 L 3 8 L 0 7 L -3 8 Z" transform="translate(200 0) scale(-1 1) translate(60.5 0.5) rotate(90) scale(1)"/><path stroke="#888" d="M 100.5 -64.5 L 100.5 65.5"/><text x="76" y="-70" fill="#888" class="caption">mirror</text><path fill="none" stroke="#0a0" d="M -15 -25 L 30 0 L -15 25 z" transform="translate(100 0)"/><path fill="none" stroke="#44f" d="M -15 -25 L 30 0 L -15 25 z" transform="translate(200 0)"/><path fill="none" stroke="#f44" d="M -15 -25 L 30 0 L -15 25 z" transform="scale(-1 1)"/><path fill="none" stroke="#000" d="M -15 -25 L 30 0 L -15 25 z" transform="scale(-1 1) translate(-100 0)"/><text x="72" y="-18" fill="#0a0" class="caption">1</text><text x="172" y="-18" fill="#44f" class="caption">2</text><text x="20" y="-18" fill="#f44" class="caption">3</text><text x="120" y="-18" fill="#000" class="caption">4</text></g></svg>