<svg xmlns="http://www.w3.org/2000/svg" xmlns:svg="http://www.w3.org/2000/svg" width="217.525" height="180.305" version="1.1"><path id="path4" fill="none" stroke="#000" stroke-width="2.685" d="m 149.04519,91.683302 h 13.4275"/><path id="path6" fill="none" stroke="#000" stroke-width="2.685" d="m 135.6177,91.683302 q 13.42749,0 13.42749,13.427498 v 60.42373 q 0,13.42749 -13.42749,13.42749 H 34.911488 q -13.427496,0 -13.427496,-13.42749 V 105.1108 q 0,-13.427498 13.427496,-13.427498"/><path id="path8" fill="none" stroke="#000" stroke-width="2.685" d="M 149.04519,91.683302 H 135.6177"/><path id="path10" fill="none" stroke="#000" stroke-width="2.685" d="M 21.483992,91.683302 H 34.911488"/><path id="path12" fill="none" stroke="#000" stroke-width="2.685" d="M 135.6177,91.683302 H 122.1902"/><path id="path14" fill="none" stroke="#000" stroke-width="2.685" d="M 34.911488,91.683302 H 48.338983"/><path id="path16" fill="none" stroke="#000" stroke-width="2.685" d="m 108.76272,91.683302 q 13.42748,0 13.42748,13.427498 v 33.56873 q 0,13.4275 -13.42748,13.4275 H 61.766478 q -13.427495,0 -13.427495,-13.4275 V 105.1108 q 0,-13.427498 13.427495,-13.427498"/><path id="path18" fill="none" stroke="#000" stroke-width="2.685" d="M 122.1902,91.683302 H 108.76272"/><path id="path20" fill="none" stroke="#000" stroke-width="2.685" d="M 48.338983,91.683302 H 61.766478"/><desc id="desc22">Created with Raphaël 2.1.0</desc><rect id="rect26" width="33.569" height="33.569" x="162.473" y="74.899" r="0" fill="#dae9e5" stroke="#dae9e5" stroke-width="1.343" rx="4.028" ry="4.028"/><text font-family="Arial" style="line-height:normal" id="text28" x="179.257" y="91.683" fill="#000" stroke="none" font="10px &quot;Arial&quot;" font-size="16.113" font-style="normal" font-variant="normal" font-weight="normal" text-anchor="middle"><tspan id="tspan30" dy="6.042">&quot;b&quot;</tspan></text><rect id="rect32" width="100.706" height="151.731" x="34.911" y="13.804" r="0" fill="none" stroke="#a0a0a0" stroke-dasharray="8.056 2.685" stroke-width="2.685" rx="4.028" ry="4.028"/><text font-family="Arial" style="line-height:normal" id="text34" x="64.452" y="5.076" fill="#000" stroke="none" font="10px &quot;Arial&quot;" font-size="13.427" font-style="normal" font-variant="normal" font-weight="normal" text-anchor="middle"><tspan id="tspan36" dy="4.7">Group #1</tspan></text><rect id="rect38" width="46.996" height="93.992" x="61.766" y="44.687" r="0" fill="#cbcbba" stroke="#cbcbba" stroke-width="1.343" rx="4.028" ry="4.028"/><text font-family="Arial" style="line-height:normal" id="text40" x="85.265" y="35.959" fill="#000" stroke="none" font="10px &quot;Arial&quot;" font-size="13.427" font-style="normal" font-variant="normal" font-weight="normal" text-anchor="middle"><tspan id="tspan42" dy="4.7">One of:</tspan></text><rect id="rect44" width="33.569" height="33.569" x="68.48" y="98.397" r="0" fill="#dae9e5" stroke="#dae9e5" stroke-width="1.343" rx="4.028" ry="4.028"/><text font-family="Arial" style="line-height:normal" id="text46" x="85.265" y="115.181" fill="#000" stroke="none" font="10px &quot;Arial&quot;" font-size="16.113" font-style="normal" font-variant="normal" font-weight="normal" text-anchor="middle"><tspan id="tspan48" dy="6.042">&quot;1&quot;</tspan></text><rect id="rect50" width="33.569" height="33.569" x="68.48" y="51.401" r="0" fill="#dae9e5" stroke="#dae9e5" stroke-width="1.343" rx="4.028" ry="4.028"/><text font-family="Arial" style="line-height:normal" id="text52" x="85.265" y="68.185" fill="#000" stroke="none" font="10px &quot;Arial&quot;" font-size="16.113" font-style="normal" font-variant="normal" font-weight="normal" text-anchor="middle"><tspan id="tspan54" dy="6.042">&quot;0&quot;</tspan></text><path id="path56" fill="none" stroke="#000" stroke-width="2.685" d="M 8.0564968,91.683302 H 21.483992"/><circle id="circle58" cx="10" cy="81" r="5" fill="#6b6659" stroke="#000" stroke-width="2" transform="matrix(1.3427496,0,0,1.3427496,-5.3709984,-17.079408)"/><path id="path60" fill="none" stroke="#000" stroke-width="2.685" d="M 209.46892,91.683302 H 196.04143"/><circle id="circle62" cx="160" cy="81" r="5" fill="#6b6659" stroke="#000" stroke-width="2" transform="matrix(1.3427496,0,0,1.3427496,-5.3709984,-17.079408)"/></svg>