<svg xmlns="http://www.w3.org/2000/svg" xmlns:xlink="http://www.w3.org/1999/xlink" width="169" height="240" viewBox="-7 -10 169 240"><style>@font-face{font-family:&apos;PT Mono&apos;;font-style:normal;font-weight:400;src:local(&apos;PT Mono&apos;),local(&apos;PTMono-Regular&apos;),url(http://themes.googleusercontent.com/static/fonts/ptmono/v1/jmle3kzCPnW8O7_gZGRDlQ.woff) format(&apos;woff&apos;)}.ast-text{font-family:&quot;PT Mono&quot;;font-size:14px;stroke:none}</style><g><ellipse width="10" height="10" cx="0" cy="0" fill="#000" rx="5" ry="5"/><text x="13" y="4.5" class="ast-text">do</text><ellipse width="10" height="10" cx="30" cy="20" fill="#000" rx="5" ry="5"/><text x="43" y="24.5" class="ast-text">define</text><path fill="none" stroke="#000" d="M 0.5 5.5 L 0.5 10.5 A 10 10 0 0 0 10.5 20.5 L 25.5 20.5"/><path fill="#000" stroke="none" d="M 0 0 L 3 8 L 0 7 L -3 8 Z" transform="translate(25.5 20.5) rotate(90) scale(1)"/><ellipse width="10" height="10" cx="60" cy="40" fill="#000" rx="5" ry="5"/><text x="73" y="44.5" class="ast-text">x</text><path fill="none" stroke="#000" d="M 30.5 25.5 L 30.5 30.5 A 10 10 0 0 0 40.5 40.5 L 55.5 40.5"/><path fill="#000" stroke="none" d="M 0 0 L 3 8 L 0 7 L -3 8 Z" transform="translate(55.5 40.5) rotate(90) scale(1)"/><ellipse width="10" height="10" cx="60" cy="60" fill="#000" rx="5" ry="5"/><text x="73" y="64.5" class="ast-text">10</text><path fill="none" stroke="#000" d="M 30.5 25.5 L 30.5 50.5 A 10 10 0 0 0 40.5 60.5 L 55.5 60.5"/><path fill="#000" stroke="none" d="M 0 0 L 3 8 L 0 7 L -3 8 Z" transform="translate(55.5 60.5) rotate(90) scale(1)"/><ellipse width="10" height="10" cx="30" cy="80" fill="#000" rx="5" ry="5"/><text x="43" y="84.5" class="ast-text">if</text><path fill="none" stroke="#000" d="M 0.5 5.5 L 0.5 70.5 A 10 10 0 0 0 10.5 80.5 L 25.5 80.5"/><path fill="#000" stroke="none" d="M 0 0 L 3 8 L 0 7 L -3 8 Z" transform="translate(25.5 80.5) rotate(90) scale(1)"/><ellipse width="10" height="10" cx="60" cy="100" fill="#000" rx="5" ry="5"/><text x="73" y="104.5" class="ast-text">&gt;</text><path fill="none" stroke="#000" d="M 30.5 85.5 L 30.5 90.5 A 10 10 0 0 0 40.5 100.5 L 55.5 100.5"/><path fill="#000" stroke="none" d="M 0 0 L 3 8 L 0 7 L -3 8 Z" transform="translate(55.5 100.5) rotate(90) scale(1)"/><ellipse width="10" height="10" cx="90" cy="120" fill="#000" rx="5" ry="5"/><text x="103" y="124.5" class="ast-text">x</text><path fill="none" stroke="#000" d="M 60.5 105.5 L 60.5 110.5 A 10 10 0 0 0 70.5 120.5 L 85.5 120.5"/><path fill="#000" stroke="none" d="M 0 0 L 3 8 L 0 7 L -3 8 Z" transform="translate(85.5 120.5) rotate(90) scale(1)"/><ellipse width="10" height="10" cx="90" cy="140" fill="#000" rx="5" ry="5"/><text x="103" y="144.5" class="ast-text">5</text><path fill="none" stroke="#000" d="M 60.5 105.5 L 60.5 130.5 A 10 10 0 0 0 70.5 140.5 L 85.5 140.5"/><path fill="#000" stroke="none" d="M 0 0 L 3 8 L 0 7 L -3 8 Z" transform="translate(85.5 140.5) rotate(90) scale(1)"/><ellipse width="10" height="10" cx="60" cy="160" fill="#000" rx="5" ry="5"/><text x="73" y="164.5" class="ast-text">print</text><path fill="none" stroke="#000" d="M 30.5 85.5 L 30.5 150.5 A 10 10 0 0 0 40.5 160.5 L 55.5 160.5"/><path fill="#000" stroke="none" d="M 0 0 L 3 8 L 0 7 L -3 8 Z" transform="translate(55.5 160.5) rotate(90) scale(1)"/><ellipse width="10" height="10" cx="90" cy="180" fill="#000" rx="5" ry="5"/><text x="103" y="184.5" class="ast-text">&quot;large&quot;</text><path fill="none" stroke="#000" d="M 60.5 165.5 L 60.5 170.5 A 10 10 0 0 0 70.5 180.5 L 85.5 180.5"/><path fill="#000" stroke="none" d="M 0 0 L 3 8 L 0 7 L -3 8 Z" transform="translate(85.5 180.5) rotate(90) scale(1)"/><ellipse width="10" height="10" cx="60" cy="200" fill="#000" rx="5" ry="5"/><text x="73" y="204.5" class="ast-text">print</text><path fill="none" stroke="#000" d="M 30.5 85.5 L 30.5 190.5 A 10 10 0 0 0 40.5 200.5 L 55.5 200.5"/><path fill="#000" stroke="none" d="M 0 0 L 3 8 L 0 7 L -3 8 Z" transform="translate(55.5 200.5) rotate(90) scale(1)"/><ellipse width="10" height="10" cx="90" cy="220" fill="#000" rx="5" ry="5"/><text x="103" y="224.5" class="ast-text">&quot;small&quot;</text><path fill="none" stroke="#000" d="M 60.5 205.5 L 60.5 210.5 A 10 10 0 0 0 70.5 220.5 L 85.5 220.5"/><path fill="#000" stroke="none" d="M 0 0 L 3 8 L 0 7 L -3 8 Z" transform="translate(85.5 220.5) rotate(90) scale(1)"/></g></svg>