<svg xmlns="http://www.w3.org/2000/svg" xmlns:xlink="http://www.w3.org/1999/xlink" width="635" height="224" viewBox="-82 -82 635 224"><style type="text/css">@font-face{font-family:&apos;PT Mono&apos;;font-style:normal;font-weight:400;src:local(&apos;PT Mono&apos;),local(&apos;PTMono-Regular&apos;),url(http://themes.googleusercontent.com/static/fonts/ptmono/v1/jmle3kzCPnW8O7_gZGRDlQ.woff) format(&apos;woff&apos;)}.caption{font-family:&apos;PT Mono&apos;;font-size:13px}</style><g><path stroke="#000" d="M 0.5 -79.5 L 0.5 80.5"/><path stroke="#000" d="M -79.5 0.5 L 80.5 0.5"/><path stroke="#0a0" d="M 0.5 -79.5 L 0.5 80.5" transform="translate(50 50)"/><path stroke="#0a0" d="M -79.5 0.5 L 80.5 0.5" transform="translate(50 50)"/><path stroke="#0a0" d="M 0.5 0.5 L 50.5 50.5"/><path fill="#0A0" stroke="none" d="M 0 0 L 3 8 L 0 7 L -3 8 Z" transform="translate(50.5 50.5) rotate(135) scale(1)"/><path stroke="#44f" d="M 0.5 -79.5 L 0.5 80.5" transform="translate(50 50) rotate(20)"/><path stroke="#44f" d="M -79.5 0.5 L 80.5 0.5" transform="translate(50 50) rotate(20)"/><path stroke="#44f" d="M 110.5 50.5 L 110.5 72.5"/><path fill="#44F" stroke="none" d="M 0 0 L 3 8 L 0 7 L -3 8 Z" transform="translate(110.5 72.5) rotate(180) scale(1)"/><text x="75" y="27" fill="#0a0" class="caption">translate(50, 50)</text><text x="130" y="67" fill="#44f" class="caption">rotate(0.1*Math.PI)</text><path stroke="#000" d="M 0.5 -79.5 L 0.5 80.5" transform="translate(360 0)"/><path stroke="#000" d="M -79.5 0.5 L 80.5 0.5" transform="translate(360 0)"/><path stroke="#0a0" d="M 0.5 -79.5 L 0.5 80.5" transform="translate(360 0) rotate(20)"/><path stroke="#0a0" d="M -79.5 0.5 L 80.5 0.5" transform="translate(360 0) rotate(20)"/><path stroke="#0a0" d="M 360.5 -59.5 L 380.5 -59.5"/><path fill="#0A0" stroke="none" d="M 0 0 L 3 8 L 0 7 L -3 8 Z" transform="translate(380.5 -59.5) rotate(90) scale(1)"/><path stroke="#44f" d="M 0.5 -79.5 L 0.5 80.5" transform="translate(360 0) rotate(20) translate(50, 50)"/><path stroke="#44f" d="M -79.5 0.5 L 80.5 0.5" transform="translate(360 0) rotate(20) translate(50, 50)"/><path stroke="#44f" d="M 360.5 0.5 L 390.5 65.5"/><path fill="#44F" stroke="none" d="M 0 0 L 3 8 L 0 7 L -3 8 Z" transform="translate(390.5 65.5) rotate(155.22485943116808) scale(1)"/><text x="390" y="-48" fill="#0a0" class="caption">rotate(0.1*Math.PI)</text><text x="415" y="57" fill="#44f" class="caption">translate(50, 50)</text></g></svg>